<svg width="461" height="100" viewBox="0 0 461 100" fill="none" xmlns="http://www.w3.org/2000/svg">
<rect width="100" height="100" rx="20" fill="#E11D48"/>
<circle cx="28.9654" cy="32.4138" r="6.2069" fill="black"/>
<circle cx="71.0344" cy="32.4138" r="6.2069" fill="black"/>
<path d="M73.3437 53.1508C73.3437 65.9438 59.6104 68.637 50.6837 69.3103C44.1603 69.3103 38.1713 68.6207 31.6061 63.7703C29.2349 62.0184 27.0769 59.2467 26.4471 56.5517C25.739 53.5214 26.7516 50.5879 27.4816 49.3103C28.8609 46.8966 30.9299 45.5172 35.7575 45.5172C38.8609 45.5172 44.8734 46.717 48.5161 46.8966C52.998 47.1175 57.4817 45.8621 61.6196 45.8621C64.0418 45.8621 67.6682 45.3832 70.2402 46.8966C72.0622 47.9685 73.3437 50.3837 73.3437 53.1508Z" fill="black"/>
<mask id="mask0_207_2" style="mask-type:alpha" maskUnits="userSpaceOnUse" x="26" y="45" width="48" height="25">
<path d="M73.3437 53.1508C73.3437 65.9438 59.6104 68.637 50.6837 69.3103C44.1603 69.3103 38.1713 68.6207 31.6061 63.7703C29.2349 62.0184 27.0769 59.2467 26.4471 56.5517C25.739 53.5214 26.7516 50.5879 27.4816 49.3103C28.8609 46.8966 30.9299 45.5172 35.7575 45.5172C38.8609 45.5172 44.8734 46.717 48.5161 46.8966C52.998 47.1175 57.4817 45.8621 61.6196 45.8621C64.0418 45.8621 67.6682 45.3832 70.2402 46.8966C72.0622 47.9685 73.3437 50.3837 73.3437 53.1508Z" fill="black"/>
</mask>
<g mask="url(#mask0_207_2)">
<circle cx="55.1725" cy="71.0345" r="10.3448" fill="#F05984"/>
<circle cx="44.1379" cy="71.0345" r="10.3448" fill="#F05984"/>
<ellipse cx="55.1724" cy="46.5517" rx="4.82759" ry="5.17241" fill="#F7F7F7"/>
<ellipse cx="44.8276" cy="46.5517" rx="4.82759" ry="5.17241" fill="#F7F7F7"/>
</g>
<path d="M350.45 41.8V59.75C350.45 61.75 350.817 63.1333 351.55 63.9C352.283 64.6333 353.583 65 355.45 65H358.5V67H355.1C352.733 67 350.983 66.45 349.85 65.35C348.75 64.2167 348.2 62.35 348.2 59.75V41.8H344.1V39.85H348.2V32.95H350.45V39.85H358.5V41.8H350.45ZM376.384 67.4C373.851 67.4 371.567 66.8333 369.534 65.7C367.501 64.5667 365.901 62.95 364.734 60.85C363.601 58.7167 363.034 56.2333 363.034 53.4C363.034 50.6 363.617 48.15 364.784 46.05C365.951 43.9167 367.551 42.3 369.584 41.2C371.651 40.0667 373.951 39.5 376.484 39.5C379.017 39.5 381.301 40.0667 383.334 41.2C385.367 42.3 386.951 43.9 388.084 46C389.251 48.1 389.834 50.5667 389.834 53.4C389.834 56.2333 389.251 58.7167 388.084 60.85C386.917 62.95 385.301 64.5667 383.234 65.7C381.201 66.8333 378.917 67.4 376.384 67.4ZM376.384 65.4C378.351 65.4 380.184 64.9667 381.884 64.1C383.617 63.2 385.001 61.85 386.034 60.05C387.067 58.25 387.584 56.0333 387.584 53.4C387.584 50.8 387.067 48.6 386.034 46.8C385.001 45 383.634 43.6667 381.934 42.8C380.234 41.9 378.401 41.45 376.434 41.45C374.467 41.45 372.634 41.9 370.934 42.8C369.267 43.6667 367.917 45 366.884 46.8C365.851 48.6 365.334 50.8 365.334 53.4C365.334 56.0333 365.834 58.25 366.834 60.05C367.867 61.85 369.217 63.2 370.884 64.1C372.584 64.9667 374.417 65.4 376.384 65.4ZM408.611 67.4C406.077 67.4 403.794 66.8333 401.761 65.7C399.727 64.5667 398.127 62.95 396.961 60.85C395.827 58.7167 395.261 56.2333 395.261 53.4C395.261 50.6 395.844 48.15 397.011 46.05C398.177 43.9167 399.777 42.3 401.811 41.2C403.877 40.0667 406.177 39.5 408.711 39.5C411.244 39.5 413.527 40.0667 415.561 41.2C417.594 42.3 419.177 43.9 420.311 46C421.477 48.1 422.061 50.5667 422.061 53.4C422.061 56.2333 421.477 58.7167 420.311 60.85C419.144 62.95 417.527 64.5667 415.461 65.7C413.427 66.8333 411.144 67.4 408.611 67.4ZM408.611 65.4C410.577 65.4 412.411 64.9667 414.111 64.1C415.844 63.2 417.227 61.85 418.261 60.05C419.294 58.25 419.811 56.0333 419.811 53.4C419.811 50.8 419.294 48.6 418.261 46.8C417.227 45 415.861 43.6667 414.161 42.8C412.461 41.9 410.627 41.45 408.661 41.45C406.694 41.45 404.861 41.9 403.161 42.8C401.494 43.6667 400.144 45 399.111 46.8C398.077 48.6 397.561 50.8 397.561 53.4C397.561 56.0333 398.061 58.25 399.061 60.05C400.094 61.85 401.444 63.2 403.111 64.1C404.811 64.9667 406.644 65.4 408.611 65.4ZM431.137 30V67H428.887V30H431.137ZM448.435 67.4C445.402 67.4 442.918 66.7333 440.985 65.4C439.085 64.0667 438.018 62.1667 437.785 59.7H440.085C440.252 61.4667 441.052 62.8667 442.485 63.9C443.952 64.9333 445.935 65.45 448.435 65.45C450.502 65.45 452.135 64.9333 453.335 63.9C454.568 62.8333 455.185 61.5333 455.185 60C455.185 58.9333 454.852 58.0667 454.185 57.4C453.552 56.7 452.752 56.1667 451.785 55.8C450.818 55.4333 449.502 55.0333 447.835 54.6C445.835 54.0667 444.218 53.55 442.985 53.05C441.752 52.5167 440.702 51.7333 439.835 50.7C438.968 49.6667 438.535 48.2833 438.535 46.55C438.535 45.2833 438.918 44.1167 439.685 43.05C440.452 41.95 441.518 41.0833 442.885 40.45C444.252 39.8167 445.802 39.5 447.535 39.5C450.368 39.5 452.652 40.2167 454.385 41.65C456.152 43.05 457.102 45 457.235 47.5H454.985C454.885 45.7 454.185 44.2333 452.885 43.1C451.585 41.9667 449.785 41.4 447.485 41.4C445.552 41.4 443.952 41.9 442.685 42.9C441.418 43.9 440.785 45.1167 440.785 46.55C440.785 47.8167 441.135 48.85 441.835 49.65C442.568 50.4167 443.452 51.0167 444.485 51.45C445.552 51.85 446.952 52.2833 448.685 52.75C450.585 53.25 452.102 53.75 453.235 54.25C454.402 54.7167 455.385 55.4167 456.185 56.35C456.985 57.25 457.385 58.4667 457.385 60C457.385 61.4 457.002 62.6667 456.235 63.8C455.468 64.9333 454.402 65.8167 453.035 66.45C451.668 67.0833 450.135 67.4 448.435 67.4Z" fill="white"/>
<path d="M123.65 49.4C123.65 45.9333 124.4 42.85 125.9 40.15C127.4 37.4167 129.483 35.3 132.15 33.8C134.85 32.2667 137.9 31.5 141.3 31.5C145.467 31.5 149.033 32.6 152 34.8C154.967 37 156.95 40 157.95 43.8H148.55C147.85 42.3333 146.85 41.2167 145.55 40.45C144.283 39.6833 142.833 39.3 141.2 39.3C138.567 39.3 136.433 40.2167 134.8 42.05C133.167 43.8833 132.35 46.3333 132.35 49.4C132.35 52.4667 133.167 54.9167 134.8 56.75C136.433 58.5833 138.567 59.5 141.2 59.5C142.833 59.5 144.283 59.1167 145.55 58.35C146.85 57.5833 147.85 56.4667 148.55 55H157.95C156.95 58.8 154.967 61.8 152 64C149.033 66.1667 145.467 67.25 141.3 67.25C137.9 67.25 134.85 66.5 132.15 65C129.483 63.4667 127.4 61.35 125.9 58.65C124.4 55.95 123.65 52.8667 123.65 49.4ZM185.036 60.8H171.936L169.836 67H160.886L173.586 31.9H183.486L196.186 67H187.136L185.036 60.8ZM182.836 54.2L178.486 41.35L174.186 54.2H182.836ZM231.451 67H222.901L208.601 45.35V67H200.051V31.9H208.601L222.901 53.65V31.9H231.451V67ZM262.899 31.9V38.75H253.599V67H245.049V38.75H235.749V31.9H262.899ZM289.04 60.8H275.94L273.84 67H264.89L277.59 31.9H287.49L300.19 67H291.14L289.04 60.8ZM286.84 54.2L282.49 41.35L278.19 54.2H286.84ZM312.605 38.75V45.85H324.055V52.45H312.605V60.15H325.555V67H304.055V31.9H325.555V38.75H312.605ZM314.555 25.8L306.805 29.9V24L314.555 20.05L322.305 24V29.9L314.555 25.8Z" fill="white"/>
</svg>
